<svg xmlns="http://www.w3.org/2000/svg" viewBox="0 0 512 512" width="512" height="512">
  <defs>
    <linearGradient id="bg" x1="0%" y1="0%" x2="0%" y2="100%">
      <stop offset="0%" stop-color="#ff385c"/>
      <stop offset="100%" stop-color="#c62828"/>
    </linearGradient>
    <linearGradient id="grass" x1="0%" y1="0%" x2="0%" y2="100%">
      <stop offset="0%" stop-color="#7cb87c"/>
      <stop offset="100%" stop-color="#4a8f4a"/>
    </linearGradient>
  </defs>
  <circle cx="256" cy="256" r="256" fill="url(#bg)"/>
  <g transform="translate(256, 256)">
    <rect x="-80" y="-25" width="160" height="130" fill="#f5e6d3" stroke="#5a4a3a" stroke-width="4"/>
    <path d="M -100 -25 Q 0 -75 100 -25 L 100 -10 L -100 -10 Z" fill="#c63a3a" stroke="#8a2828" stroke-width="3"/>
    <rect x="-40" y="-105" width="80" height="40" fill="#f5e6d3" stroke="#5a4a3a" stroke-width="4"/>
    <path d="M -50 -105 Q 0 -135 50 -105 L 50 -90 L -50 -90 Z" fill="#c63a3a" stroke="#8a2828" stroke-width="3"/>
    <line x1="0" y1="-160" x2="0" y2="-125" stroke="#222" stroke-width="4"/>
    <path d="M 0 -148 L 32 -140 L 32 -125 L 0 -118 Z" fill="#ff385c"/>
    <path d="M -22 105 L -22 60 Q 0 45 22 60 L 22 105 Z" fill="#3a2820"/>
    <rect x="-12" y="60" width="24" height="36" fill="none" stroke="#fff" stroke-width="2"/>
    <line x1="-12" y1="78" x2="12" y2="78" stroke="#fff" stroke-width="2"/>
  </g>
  <ellipse cx="256" cy="480" rx="220" ry="20" fill="url(#grass)" opacity="0.6"/>
</svg>
